<svg xmlns="http://www.w3.org/2000/svg" shape-rendering="geometricPrecision" text-rendering="geometricPrecision" image-rendering="optimizeQuality" fill-rule="evenodd" clip-rule="evenodd" viewBox="0 0 512 478.126"><path d="M272.472 109.892l-5.627-25.735c24.103 4.483 62.734 53.511 75.219 75.805 6.372 11.377 11.951 23.911 16.521 37.924 9.101 33.913.334 65.641-36.455 73.03-23.051 4.631-66.039 4.957-90.282 3.704-26.062-1.348-66.392-1.308-76.928-28.065-17.003-43.191 14.151-94.645 42.555-126.138 3.739-4.145 7.603-8.007 11.602-11.571 7.714-6.786 15.228-13.857 24.024-19.257 3.644-1.822 6.078-3.465 10.105-4.885l.024-.008.621-.215-12.846 23.923 14.734-19.536 3.925-5.201h9.83l5.768 11.654 7.21 14.571zM68.519 219.466a6.81 6.81 0 01-6.809 6.81 6.81 6.81 0 01-6.809-6.81v-51.301c0-6.346 2.596-12.12 6.777-16.3 4.177-4.178 9.948-6.776 16.298-6.776h79.18a212.187 212.187 0 00-7.707 13.619H77.976c-2.588 0-4.953 1.068-6.67 2.785-1.719 1.719-2.787 4.083-2.787 6.672v51.301zm255.883 166.017v77.149c0 4.262-1.748 8.14-4.55 10.942-2.807 2.807-6.687 4.552-10.944 4.552H203.096c-4.258 0-8.135-1.75-10.94-4.555l-.337-.371c-2.609-2.78-4.218-6.508-4.218-10.568v-77.149c0-4.258 1.745-8.138 4.552-10.944 2.805-2.805 6.678-4.55 10.943-4.55h105.812c4.25 0 8.12 1.743 10.926 4.547l.021.022c2.804 2.804 4.547 6.675 4.547 10.925zM512 259.928v85.332c0 4.655-1.918 8.897-5.001 11.983l.014.014c-3.078 3.078-7.329 4.989-12 4.989h-85.36c-4.671 0-8.921-1.916-11.996-4.992l-.442-.485c-2.816-3.041-4.55-7.097-4.55-11.509v-85.332c0-4.67 1.912-8.922 4.989-11.999 3.073-3.074 7.322-4.987 11.999-4.987h85.36c4.66 0 8.901 1.912 11.976 4.984l.027.027c3.072 3.075 4.984 7.316 4.984 11.975zm-13.619 85.332v-85.332a3.39 3.39 0 00-.981-2.386 3.39 3.39 0 00-2.387-.981h-85.36c-.917 0-1.757.383-2.371.997a3.358 3.358 0 00-.998 2.37v85.332c0 .825.298 1.582.786 2.16l.215.206a3.36 3.36 0 002.368 1.001h85.36c.914 0 1.756-.383 2.371-.998h.026a3.341 3.341 0 00.971-2.369zm-379.044-85.332v77.15c0 4.675-1.915 8.925-4.988 11.997-3.076 3.078-7.331 4.989-11.999 4.989H16.987c-4.669 0-8.919-1.916-11.995-4.992C1.917 345.997 0 341.747 0 337.078v-77.15c0-4.667 1.912-8.922 4.989-11.999 3.072-3.072 7.322-4.987 11.998-4.987h85.363c4.66 0 8.901 1.912 11.976 4.984l.027.027c3.072 3.075 4.984 7.316 4.984 11.975zm-13.619 77.15v-77.15a3.39 3.39 0 00-.981-2.386 3.39 3.39 0 00-2.387-.981H16.987c-.915 0-1.756.383-2.37.997a3.358 3.358 0 00-.998 2.37v77.15c0 .909.386 1.751 1.002 2.366a3.36 3.36 0 002.366 1.002h85.363a3.36 3.36 0 002.371-.999 3.351 3.351 0 00.997-2.369zm247.821-191.989h80.483c6.32 0 12.084 2.595 16.276 6.774l.041.042c4.17 4.19 6.759 9.945 6.759 16.26v51.239a6.81 6.81 0 01-13.619 0v-51.239a9.412 9.412 0 00-2.757-6.674l-.026-.026a9.412 9.412 0 00-6.674-2.757h-72.811a213.532 213.532 0 00-3.898-7.295 146.643 146.643 0 00-3.774-6.324zM262.81 345.431c0 3.76-3.05 6.81-6.81 6.81s-6.81-3.05-6.81-6.81v-52.798c4.365.065 8.941.086 13.62.057v52.741zm-16.332-116.028c-5.191-.367-11.81-1.644-16.901-3.012v-18.15c4.318.351 8.528.625 12.855.816 3.852.119 7.664.198 11.517.218 2.017 0 4.932-.108 6.775-.998 1.174-.565 1.631-1.314 1.631-2.611v-1.199c0-2.148-1.856-2.91-3.709-2.91h-5.297c-3.988 0-7.528-.448-10.606-1.34-6.232-1.807-10.695-5.347-12.879-11.577-1.057-3.014-1.587-6.603-1.587-10.757v-3.298c0-6.709 1.793-13.171 7.137-17.583 3.532-2.909 6.522-4.477 11.064-5.236v-8.051h16.739v7.726c5.193.415 11.652 1.739 16.805 2.992v18.177l-1.615-.142a235.587 235.587 0 00-10.28-.651 244.343 244.343 0 00-10.379-.242c-1.57 0-3.191.088-4.737.369-1.26.227-2.704.782-3.154 2.097-.329.972-.323 3.263.06 4.165.746 1.768 3.068 1.986 4.731 1.986 6.502 0 13.082-.505 18.971 2.847 7.011 3.996 10.101 11.046 10.101 18.828v3.298c0 3.254-.292 6.156-.867 8.693-2.289 10.07-10.097 14.417-19.636 15.462v8.714h-16.739v-8.631zM235.522 47.371c-4.264-12.576-8.033-25.218-11.302-38.084 3.219-3.522 8.341-5.525 12.836-6.772 18.723-5.145 48.797-2.119 59.128 6.566l-12.391 29.464c6.664-8.756 8.903-12.35 12.88-17.228a38.158 38.158 0 014.724 3.665c3.526 3.189 6.672 6.716 7.31 11.631.413 3.188-.499 6.426-3.335 9.738L276.94 79.466c-3.66-.601-7.236-1.479-10.706-2.712 1.654-3.937 3.482-7.809 5.17-11.764l-10.352 11.179c-10.783-2.274-19.454-.917-27.534 3.356L204.684 44.92c-1.713-2.063-2.493-4.126-2.487-6.191.148-5.604 5.108-9.994 9.355-12.989 3.078-2.092 6.232-3.896 9.674-5.327l14.296 26.958z"/></svg>